<?xml version="1.0" encoding="utf-8"?>
<!-- Generator: Adobe Illustrator 27.5.0, SVG Export Plug-In . SVG Version: 6.00 Build 0)  -->
<svg version="1.1" id="Capa_1" xmlns="http://www.w3.org/2000/svg" xmlns:xlink="http://www.w3.org/1999/xlink" x="0px" y="0px"
	 viewBox="0 0 425.198 344.859" style="enable-background:new 0 0 425.198 344.859;" xml:space="preserve">
<radialGradient id="SVGID_1_" cx="1537.5929" cy="900.3652" r="428.3271" gradientTransform="matrix(0.7165 0 0 0.5274 -884.1487 -317.026)" gradientUnits="userSpaceOnUse">
	<stop  offset="0.6771" style="stop-color:#FFFFFF"/>
	<stop  offset="0.9896" style="stop-color:#D1D3D4"/>
</radialGradient>
<rect x="0" y="0" style="fill:url(#SVGID_1_);" width="425.198" height="344.859"/>
<g>
	
		<linearGradient id="SVGID_00000160184250988738808600000009158764456823095194_" gradientUnits="userSpaceOnUse" x1="62.3775" y1="165.0534" x2="362.8208" y2="165.0534">
		<stop  offset="0" style="stop-color:#000000"/>
		<stop  offset="0.5699" style="stop-color:#3C3A3C"/>
		<stop  offset="1" style="stop-color:#000000"/>
	</linearGradient>
	<path style="fill:url(#SVGID_00000160184250988738808600000009158764456823095194_);" d="M362.821,205.386
		c0,5.231-4.24,9.473-9.474,9.473H71.851c-5.233,0-9.473-4.242-9.473-9.473v-80.665c0-5.231,4.24-9.473,9.473-9.473h281.497
		c5.233,0,9.474,4.242,9.474,9.473V205.386z"/>
	
		<linearGradient id="SVGID_00000061456903580232252710000003026198056974323599_" gradientUnits="userSpaceOnUse" x1="73.4302" y1="128.0661" x2="92.0259" y2="128.0661">
		<stop  offset="0" style="stop-color:#333334"/>
		<stop  offset="0.5161" style="stop-color:#454547"/>
		<stop  offset="1" style="stop-color:#363537"/>
	</linearGradient>
	<path style="fill:url(#SVGID_00000061456903580232252710000003026198056974323599_);" d="M92.026,131.395
		c0,0.325-0.262,0.586-0.586,0.586H74.016c-0.324,0-0.586-0.261-0.586-0.586v-6.662c0-0.321,0.262-0.583,0.586-0.583H91.44
		c0.324,0,0.586,0.262,0.586,0.583V131.395z"/>
	
		<linearGradient id="SVGID_00000160178931598919691250000017728665973053566879_" gradientUnits="userSpaceOnUse" x1="73.4302" y1="146.2106" x2="92.0259" y2="146.2106">
		<stop  offset="0" style="stop-color:#333334"/>
		<stop  offset="0.5161" style="stop-color:#454547"/>
		<stop  offset="1" style="stop-color:#363537"/>
	</linearGradient>
	<path style="fill:url(#SVGID_00000160178931598919691250000017728665973053566879_);" d="M92.026,151.613
		c0,0.324-0.262,0.586-0.586,0.586H74.016c-0.324,0-0.586-0.262-0.586-0.586v-10.805c0-0.324,0.262-0.586,0.586-0.586H91.44
		c0.324,0,0.586,0.261,0.586,0.586V151.613z"/>
	
		<linearGradient id="SVGID_00000165929235537820585950000002698081747401213313_" gradientUnits="userSpaceOnUse" x1="97.045" y1="146.2106" x2="115.6377" y2="146.2106">
		<stop  offset="0" style="stop-color:#333334"/>
		<stop  offset="0.5161" style="stop-color:#454547"/>
		<stop  offset="1" style="stop-color:#363537"/>
	</linearGradient>
	<path style="fill:url(#SVGID_00000165929235537820585950000002698081747401213313_);" d="M115.638,151.613
		c0,0.324-0.261,0.586-0.584,0.586H97.63c-0.327,0-0.585-0.262-0.585-0.586v-10.805c0-0.324,0.259-0.586,0.585-0.586h17.424
		c0.322,0,0.584,0.261,0.584,0.586V151.613z"/>
	
		<linearGradient id="SVGID_00000073692315601240824040000005736018083987048625_" gradientUnits="userSpaceOnUse" x1="120.6597" y1="146.2106" x2="139.2549" y2="146.2106">
		<stop  offset="0" style="stop-color:#333334"/>
		<stop  offset="0.5161" style="stop-color:#454547"/>
		<stop  offset="1" style="stop-color:#363537"/>
	</linearGradient>
	<path style="fill:url(#SVGID_00000073692315601240824040000005736018083987048625_);" d="M139.255,151.613
		c0,0.324-0.261,0.586-0.585,0.586h-17.422c-0.327,0-0.588-0.262-0.588-0.586v-10.805c0-0.324,0.261-0.586,0.588-0.586h17.422
		c0.324,0,0.585,0.261,0.585,0.586V151.613z"/>
	
		<linearGradient id="SVGID_00000034072098140307217480000009637395267958105752_" gradientUnits="userSpaceOnUse" x1="144.2769" y1="146.2106" x2="162.8721" y2="146.2106">
		<stop  offset="0" style="stop-color:#333334"/>
		<stop  offset="0.5161" style="stop-color:#454547"/>
		<stop  offset="1" style="stop-color:#363537"/>
	</linearGradient>
	<path style="fill:url(#SVGID_00000034072098140307217480000009637395267958105752_);" d="M162.872,151.613
		c0,0.324-0.261,0.586-0.585,0.586h-17.424c-0.324,0-0.585-0.262-0.585-0.586v-10.805c0-0.324,0.261-0.586,0.585-0.586h17.424
		c0.324,0,0.585,0.261,0.585,0.586V151.613z"/>
	
		<linearGradient id="SVGID_00000132065330803372429150000012141637976112853693_" gradientUnits="userSpaceOnUse" x1="167.8911" y1="146.2106" x2="186.4893" y2="146.2106">
		<stop  offset="0" style="stop-color:#333334"/>
		<stop  offset="0.5161" style="stop-color:#454547"/>
		<stop  offset="1" style="stop-color:#363537"/>
	</linearGradient>
	<path style="fill:url(#SVGID_00000132065330803372429150000012141637976112853693_);" d="M186.489,151.613
		c0,0.324-0.261,0.586-0.586,0.586H168.48c-0.324,0-0.588-0.262-0.588-0.586v-10.805c0-0.324,0.264-0.586,0.588-0.586h17.424
		c0.324,0,0.586,0.261,0.586,0.586V151.613z"/>
	
		<linearGradient id="SVGID_00000178917243159138469890000007248868878826075792_" gradientUnits="userSpaceOnUse" x1="191.5054" y1="146.2106" x2="210.1011" y2="146.2106">
		<stop  offset="0" style="stop-color:#333334"/>
		<stop  offset="0.5161" style="stop-color:#454547"/>
		<stop  offset="1" style="stop-color:#363537"/>
	</linearGradient>
	<path style="fill:url(#SVGID_00000178917243159138469890000007248868878826075792_);" d="M210.101,151.613
		c0,0.324-0.261,0.586-0.58,0.586h-17.43c-0.324,0-0.586-0.262-0.586-0.586v-10.805c0-0.324,0.262-0.586,0.586-0.586h17.43
		c0.319,0,0.58,0.261,0.58,0.586V151.613z"/>
	
		<linearGradient id="SVGID_00000116226473745400950400000008319310610098773120_" gradientUnits="userSpaceOnUse" x1="215.1226" y1="146.2106" x2="233.7183" y2="146.2106">
		<stop  offset="0" style="stop-color:#333334"/>
		<stop  offset="0.5161" style="stop-color:#454547"/>
		<stop  offset="1" style="stop-color:#363537"/>
	</linearGradient>
	<path style="fill:url(#SVGID_00000116226473745400950400000008319310610098773120_);" d="M233.718,151.613
		c0,0.324-0.261,0.586-0.586,0.586h-17.424c-0.324,0-0.586-0.262-0.586-0.586v-10.805c0-0.324,0.262-0.586,0.586-0.586h17.424
		c0.325,0,0.586,0.261,0.586,0.586V151.613z"/>
	
		<linearGradient id="SVGID_00000094610320140747379970000013617719209769724553_" gradientUnits="userSpaceOnUse" x1="238.7398" y1="146.2106" x2="257.3355" y2="146.2106">
		<stop  offset="0" style="stop-color:#333334"/>
		<stop  offset="0.5161" style="stop-color:#454547"/>
		<stop  offset="1" style="stop-color:#363537"/>
	</linearGradient>
	<path style="fill:url(#SVGID_00000094610320140747379970000013617719209769724553_);" d="M257.336,151.613
		c0,0.324-0.261,0.586-0.586,0.586h-17.424c-0.324,0-0.586-0.262-0.586-0.586v-10.805c0-0.324,0.262-0.586,0.586-0.586h17.424
		c0.325,0,0.586,0.261,0.586,0.586V151.613z"/>
	
		<linearGradient id="SVGID_00000116921144390281299830000017708525600851889078_" gradientUnits="userSpaceOnUse" x1="262.3521" y1="146.2106" x2="280.9527" y2="146.2106">
		<stop  offset="0" style="stop-color:#333334"/>
		<stop  offset="0.5161" style="stop-color:#454547"/>
		<stop  offset="1" style="stop-color:#363537"/>
	</linearGradient>
	<path style="fill:url(#SVGID_00000116921144390281299830000017708525600851889078_);" d="M280.953,151.613
		c0,0.324-0.264,0.586-0.588,0.586H262.94c-0.322,0-0.588-0.262-0.588-0.586v-10.805c0-0.324,0.267-0.586,0.588-0.586h17.424
		c0.325,0,0.588,0.261,0.588,0.586V151.613z"/>
	
		<linearGradient id="SVGID_00000178200471689035666440000013251474190807006628_" gradientUnits="userSpaceOnUse" x1="285.9693" y1="146.2106" x2="304.565" y2="146.2106">
		<stop  offset="0" style="stop-color:#333334"/>
		<stop  offset="0.5161" style="stop-color:#454547"/>
		<stop  offset="1" style="stop-color:#363537"/>
	</linearGradient>
	<path style="fill:url(#SVGID_00000178200471689035666440000013251474190807006628_);" d="M304.565,151.613
		c0,0.324-0.262,0.586-0.583,0.586h-17.426c-0.324,0-0.586-0.262-0.586-0.586v-10.805c0-0.324,0.262-0.586,0.586-0.586h17.426
		c0.322,0,0.583,0.261,0.583,0.586V151.613z"/>
	
		<linearGradient id="SVGID_00000158749959837760937450000013023166903983930010_" gradientUnits="userSpaceOnUse" x1="309.5865" y1="146.2106" x2="328.1822" y2="146.2106">
		<stop  offset="0" style="stop-color:#333334"/>
		<stop  offset="0.5161" style="stop-color:#454547"/>
		<stop  offset="1" style="stop-color:#363537"/>
	</linearGradient>
	<path style="fill:url(#SVGID_00000158749959837760937450000013023166903983930010_);" d="M328.182,151.613
		c0,0.324-0.262,0.586-0.586,0.586h-17.424c-0.324,0-0.586-0.262-0.586-0.586v-10.805c0-0.324,0.262-0.586,0.586-0.586h17.424
		c0.324,0,0.586,0.261,0.586,0.586V151.613z"/>
	
		<linearGradient id="SVGID_00000059298747991494868910000015071899065904542396_" gradientUnits="userSpaceOnUse" x1="74.4761" y1="180.3994" x2="93.0718" y2="180.3994">
		<stop  offset="0" style="stop-color:#333334"/>
		<stop  offset="0.5161" style="stop-color:#454547"/>
		<stop  offset="1" style="stop-color:#363537"/>
	</linearGradient>
	<path style="fill:url(#SVGID_00000059298747991494868910000015071899065904542396_);" d="M93.072,185.801
		c0,0.324-0.261,0.586-0.586,0.586H75.062c-0.324,0-0.586-0.262-0.586-0.586v-10.807c0-0.322,0.262-0.583,0.586-0.583h17.424
		c0.325,0,0.586,0.261,0.586,0.583V185.801z"/>
	
		<linearGradient id="SVGID_00000113335332792608606510000006969162069613393066_" gradientUnits="userSpaceOnUse" x1="98.0933" y1="180.3994" x2="116.689" y2="180.3994">
		<stop  offset="0" style="stop-color:#333334"/>
		<stop  offset="0.5161" style="stop-color:#454547"/>
		<stop  offset="1" style="stop-color:#363537"/>
	</linearGradient>
	<path style="fill:url(#SVGID_00000113335332792608606510000006969162069613393066_);" d="M116.689,185.801
		c0,0.324-0.261,0.586-0.586,0.586H98.679c-0.324,0-0.586-0.262-0.586-0.586v-10.807c0-0.322,0.262-0.583,0.586-0.583h17.424
		c0.325,0,0.586,0.261,0.586,0.583V185.801z"/>
	
		<linearGradient id="SVGID_00000132785491627115998880000002081384604359037087_" gradientUnits="userSpaceOnUse" x1="121.7085" y1="180.3994" x2="140.3062" y2="180.3994">
		<stop  offset="0" style="stop-color:#333334"/>
		<stop  offset="0.5161" style="stop-color:#454547"/>
		<stop  offset="1" style="stop-color:#363537"/>
	</linearGradient>
	<path style="fill:url(#SVGID_00000132785491627115998880000002081384604359037087_);" d="M140.306,185.801
		c0,0.324-0.264,0.586-0.586,0.586h-17.426c-0.322,0-0.585-0.262-0.585-0.586v-10.807c0-0.322,0.264-0.583,0.585-0.583h17.426
		c0.322,0,0.586,0.261,0.586,0.583V185.801z"/>
	
		<linearGradient id="SVGID_00000145761959824779608350000009927545279012358826_" gradientUnits="userSpaceOnUse" x1="145.3228" y1="180.3994" x2="163.9209" y2="180.3994">
		<stop  offset="0" style="stop-color:#333334"/>
		<stop  offset="0.5161" style="stop-color:#454547"/>
		<stop  offset="1" style="stop-color:#363537"/>
	</linearGradient>
	<path style="fill:url(#SVGID_00000145761959824779608350000009927545279012358826_);" d="M163.921,185.801
		c0,0.324-0.264,0.586-0.588,0.586h-17.421c-0.327,0-0.588-0.262-0.588-0.586v-10.807c0-0.322,0.262-0.583,0.588-0.583h17.421
		c0.324,0,0.588,0.261,0.588,0.583V185.801z"/>
	
		<linearGradient id="SVGID_00000110467341025637627060000015986120168070204820_" gradientUnits="userSpaceOnUse" x1="168.94" y1="180.3994" x2="187.5357" y2="180.3994">
		<stop  offset="0" style="stop-color:#333334"/>
		<stop  offset="0.5161" style="stop-color:#454547"/>
		<stop  offset="1" style="stop-color:#363537"/>
	</linearGradient>
	<path style="fill:url(#SVGID_00000110467341025637627060000015986120168070204820_);" d="M187.536,185.801
		c0,0.324-0.262,0.586-0.586,0.586h-17.424c-0.324,0-0.586-0.262-0.586-0.586v-10.807c0-0.322,0.262-0.583,0.586-0.583h17.424
		c0.324,0,0.586,0.261,0.586,0.583V185.801z"/>
	
		<linearGradient id="SVGID_00000111161600862946490740000006672276463703307154_" gradientUnits="userSpaceOnUse" x1="192.5542" y1="180.3994" x2="211.1529" y2="180.3994">
		<stop  offset="0" style="stop-color:#333334"/>
		<stop  offset="0.5161" style="stop-color:#454547"/>
		<stop  offset="1" style="stop-color:#363537"/>
	</linearGradient>
	<path style="fill:url(#SVGID_00000111161600862946490740000006672276463703307154_);" d="M211.153,185.801
		c0,0.324-0.265,0.586-0.586,0.586h-17.424c-0.327,0-0.589-0.262-0.589-0.586v-10.807c0-0.322,0.262-0.583,0.589-0.583h17.424
		c0.321,0,0.586,0.261,0.586,0.583V185.801z"/>
	
		<linearGradient id="SVGID_00000116204398749337696390000007745391708316420231_" gradientUnits="userSpaceOnUse" x1="216.169" y1="180.3994" x2="234.7701" y2="180.3994">
		<stop  offset="0" style="stop-color:#333334"/>
		<stop  offset="0.5161" style="stop-color:#454547"/>
		<stop  offset="1" style="stop-color:#363537"/>
	</linearGradient>
	<path style="fill:url(#SVGID_00000116204398749337696390000007745391708316420231_);" d="M234.77,185.801
		c0,0.324-0.265,0.586-0.589,0.586h-17.424c-0.324,0-0.588-0.262-0.588-0.586v-10.807c0-0.322,0.264-0.583,0.588-0.583h17.424
		c0.324,0,0.589,0.261,0.589,0.583V185.801z"/>
	
		<linearGradient id="SVGID_00000152224094701817028870000016183369572610843838_" gradientUnits="userSpaceOnUse" x1="239.7862" y1="180.3994" x2="258.3819" y2="180.3994">
		<stop  offset="0" style="stop-color:#333334"/>
		<stop  offset="0.5161" style="stop-color:#454547"/>
		<stop  offset="1" style="stop-color:#363537"/>
	</linearGradient>
	<path style="fill:url(#SVGID_00000152224094701817028870000016183369572610843838_);" d="M258.382,185.801
		c0,0.324-0.261,0.586-0.586,0.586h-17.424c-0.324,0-0.586-0.262-0.586-0.586v-10.807c0-0.322,0.262-0.583,0.586-0.583h17.424
		c0.325,0,0.586,0.261,0.586,0.583V185.801z"/>
	
		<linearGradient id="SVGID_00000018951419511331933120000002205429149485466274_" gradientUnits="userSpaceOnUse" x1="263.4034" y1="180.3994" x2="281.9991" y2="180.3994">
		<stop  offset="0" style="stop-color:#333334"/>
		<stop  offset="0.5161" style="stop-color:#454547"/>
		<stop  offset="1" style="stop-color:#363537"/>
	</linearGradient>
	<path style="fill:url(#SVGID_00000018951419511331933120000002205429149485466274_);" d="M281.999,185.801
		c0,0.324-0.261,0.586-0.586,0.586h-17.424c-0.324,0-0.586-0.262-0.586-0.586v-10.807c0-0.322,0.262-0.583,0.586-0.583h17.424
		c0.325,0,0.586,0.261,0.586,0.583V185.801z"/>
	
		<linearGradient id="SVGID_00000139257283134527766830000006016851351450122924_" gradientUnits="userSpaceOnUse" x1="287.0152" y1="180.3994" x2="305.6138" y2="180.3994">
		<stop  offset="0" style="stop-color:#333334"/>
		<stop  offset="0.5161" style="stop-color:#454547"/>
		<stop  offset="1" style="stop-color:#363537"/>
	</linearGradient>
	<path style="fill:url(#SVGID_00000139257283134527766830000006016851351450122924_);" d="M305.614,185.801
		c0,0.324-0.265,0.586-0.586,0.586h-17.424c-0.324,0-0.589-0.262-0.589-0.586v-10.807c0-0.322,0.265-0.583,0.589-0.583h17.424
		c0.321,0,0.586,0.261,0.586,0.583V185.801z"/>
	
		<linearGradient id="SVGID_00000094578978137446793900000012252956967841472130_" gradientUnits="userSpaceOnUse" x1="310.6324" y1="180.3994" x2="329.231" y2="180.3994">
		<stop  offset="0" style="stop-color:#333334"/>
		<stop  offset="0.5161" style="stop-color:#454547"/>
		<stop  offset="1" style="stop-color:#363537"/>
	</linearGradient>
	<path style="fill:url(#SVGID_00000094578978137446793900000012252956967841472130_);" d="M329.231,185.801
		c0,0.324-0.265,0.586-0.586,0.586h-17.424c-0.324,0-0.589-0.262-0.589-0.586v-10.807c0-0.322,0.265-0.583,0.589-0.583h17.424
		c0.321,0,0.586,0.261,0.586,0.583V185.801z"/>
	
		<linearGradient id="SVGID_00000063611819220500467290000012766031088599620512_" gradientUnits="userSpaceOnUse" x1="333.2007" y1="180.3994" x2="351.7993" y2="180.3994">
		<stop  offset="0" style="stop-color:#333334"/>
		<stop  offset="0.5161" style="stop-color:#454547"/>
		<stop  offset="1" style="stop-color:#363537"/>
	</linearGradient>
	<path style="fill:url(#SVGID_00000063611819220500467290000012766031088599620512_);" d="M351.799,185.801
		c0,0.324-0.262,0.586-0.586,0.586h-17.427c-0.321,0-0.586-0.262-0.586-0.586v-10.807c0-0.322,0.265-0.583,0.586-0.583h17.427
		c0.324,0,0.586,0.261,0.586,0.583V185.801z"/>
	
		<linearGradient id="SVGID_00000031928262616340913480000008737785867713446813_" gradientUnits="userSpaceOnUse" x1="107.3887" y1="162.0417" x2="125.9844" y2="162.0417">
		<stop  offset="0" style="stop-color:#333334"/>
		<stop  offset="0.5161" style="stop-color:#454547"/>
		<stop  offset="1" style="stop-color:#363537"/>
	</linearGradient>
	<path style="fill:url(#SVGID_00000031928262616340913480000008737785867713446813_);" d="M125.984,167.444
		c0,0.324-0.261,0.586-0.586,0.586h-17.421c-0.327,0-0.588-0.262-0.588-0.586v-10.807c0-0.322,0.262-0.584,0.588-0.584h17.421
		c0.325,0,0.586,0.261,0.586,0.584V167.444z"/>
	
		<linearGradient id="SVGID_00000103952950399501144810000017384228412612360880_" gradientUnits="userSpaceOnUse" x1="73.4302" y1="162.0417" x2="102.3853" y2="162.0417">
		<stop  offset="0" style="stop-color:#333334"/>
		<stop  offset="0.5161" style="stop-color:#454547"/>
		<stop  offset="1" style="stop-color:#363537"/>
	</linearGradient>
	<path style="fill:url(#SVGID_00000103952950399501144810000017384228412612360880_);" d="M102.385,167.444
		c0,0.324-0.264,0.586-0.586,0.586H74.016c-0.324,0-0.586-0.262-0.586-0.586v-10.807c0-0.322,0.262-0.584,0.586-0.584h27.783
		c0.322,0,0.586,0.261,0.586,0.584V167.444z"/>
	
		<linearGradient id="SVGID_00000028291561220715079590000013749211861509946526_" gradientUnits="userSpaceOnUse" x1="131.0059" y1="162.0417" x2="149.6016" y2="162.0417">
		<stop  offset="0" style="stop-color:#333334"/>
		<stop  offset="0.5161" style="stop-color:#454547"/>
		<stop  offset="1" style="stop-color:#363537"/>
	</linearGradient>
	<path style="fill:url(#SVGID_00000028291561220715079590000013749211861509946526_);" d="M149.602,167.444
		c0,0.324-0.261,0.586-0.586,0.586h-17.424c-0.324,0-0.586-0.262-0.586-0.586v-10.807c0-0.322,0.262-0.584,0.586-0.584h17.424
		c0.325,0,0.586,0.261,0.586,0.584V167.444z"/>
	
		<linearGradient id="SVGID_00000129928332824431218860000009657685764121791419_" gradientUnits="userSpaceOnUse" x1="154.6206" y1="162.0417" x2="173.2188" y2="162.0417">
		<stop  offset="0" style="stop-color:#333334"/>
		<stop  offset="0.5161" style="stop-color:#454547"/>
		<stop  offset="1" style="stop-color:#363537"/>
	</linearGradient>
	<path style="fill:url(#SVGID_00000129928332824431218860000009657685764121791419_);" d="M173.219,167.444
		c0,0.324-0.261,0.586-0.586,0.586h-17.424c-0.324,0-0.588-0.262-0.588-0.586v-10.807c0-0.322,0.264-0.584,0.588-0.584h17.424
		c0.325,0,0.586,0.261,0.586,0.584V167.444z"/>
	
		<linearGradient id="SVGID_00000166657737150097589910000013536412972351964818_" gradientUnits="userSpaceOnUse" x1="178.2378" y1="162.0417" x2="196.836" y2="162.0417">
		<stop  offset="0" style="stop-color:#333334"/>
		<stop  offset="0.5161" style="stop-color:#454547"/>
		<stop  offset="1" style="stop-color:#363537"/>
	</linearGradient>
	<path style="fill:url(#SVGID_00000166657737150097589910000013536412972351964818_);" d="M196.836,167.444
		c0,0.324-0.261,0.586-0.586,0.586h-17.426c-0.322,0-0.586-0.262-0.586-0.586v-10.807c0-0.322,0.264-0.584,0.586-0.584h17.426
		c0.325,0,0.586,0.261,0.586,0.584V167.444z"/>
	
		<linearGradient id="SVGID_00000164483575801374647050000016653810524973263532_" gradientUnits="userSpaceOnUse" x1="201.8521" y1="162.0417" x2="220.4478" y2="162.0417">
		<stop  offset="0" style="stop-color:#333334"/>
		<stop  offset="0.5161" style="stop-color:#454547"/>
		<stop  offset="1" style="stop-color:#363537"/>
	</linearGradient>
	<path style="fill:url(#SVGID_00000164483575801374647050000016653810524973263532_);" d="M220.448,167.444
		c0,0.324-0.262,0.586-0.586,0.586h-17.424c-0.324,0-0.586-0.262-0.586-0.586v-10.807c0-0.322,0.262-0.584,0.586-0.584h17.424
		c0.324,0,0.586,0.261,0.586,0.584V167.444z"/>
	
		<linearGradient id="SVGID_00000083776535426344025090000018286695264200201123_" gradientUnits="userSpaceOnUse" x1="225.4693" y1="162.0417" x2="244.065" y2="162.0417">
		<stop  offset="0" style="stop-color:#333334"/>
		<stop  offset="0.5161" style="stop-color:#454547"/>
		<stop  offset="1" style="stop-color:#363537"/>
	</linearGradient>
	<path style="fill:url(#SVGID_00000083776535426344025090000018286695264200201123_);" d="M244.065,167.444
		c0,0.324-0.262,0.586-0.586,0.586h-17.424c-0.324,0-0.586-0.262-0.586-0.586v-10.807c0-0.322,0.262-0.584,0.586-0.584h17.424
		c0.324,0,0.586,0.261,0.586,0.584V167.444z"/>
	
		<linearGradient id="SVGID_00000010310798510077658570000014859071531869655425_" gradientUnits="userSpaceOnUse" x1="249.0816" y1="162.0417" x2="267.6822" y2="162.0417">
		<stop  offset="0" style="stop-color:#333334"/>
		<stop  offset="0.5161" style="stop-color:#454547"/>
		<stop  offset="1" style="stop-color:#363537"/>
	</linearGradient>
	<path style="fill:url(#SVGID_00000010310798510077658570000014859071531869655425_);" d="M267.682,167.444
		c0,0.324-0.264,0.586-0.586,0.586h-17.424c-0.324,0-0.591-0.262-0.591-0.586v-10.807c0-0.322,0.267-0.584,0.591-0.584h17.424
		c0.322,0,0.586,0.261,0.586,0.584V167.444z"/>
	
		<linearGradient id="SVGID_00000121971809716615964310000005235950818216012179_" gradientUnits="userSpaceOnUse" x1="272.6988" y1="162.0417" x2="291.2969" y2="162.0417">
		<stop  offset="0" style="stop-color:#333334"/>
		<stop  offset="0.5161" style="stop-color:#454547"/>
		<stop  offset="1" style="stop-color:#363537"/>
	</linearGradient>
	<path style="fill:url(#SVGID_00000121971809716615964310000005235950818216012179_);" d="M291.297,167.444
		c0,0.324-0.262,0.586-0.584,0.586h-17.426c-0.325,0-0.588-0.262-0.588-0.586v-10.807c0-0.322,0.264-0.584,0.588-0.584h17.426
		c0.322,0,0.584,0.261,0.584,0.584V167.444z"/>
	
		<linearGradient id="SVGID_00000056428200234170165670000003313558106269863308_" gradientUnits="userSpaceOnUse" x1="296.316" y1="162.0417" x2="314.9117" y2="162.0417">
		<stop  offset="0" style="stop-color:#333334"/>
		<stop  offset="0.5161" style="stop-color:#454547"/>
		<stop  offset="1" style="stop-color:#363537"/>
	</linearGradient>
	<path style="fill:url(#SVGID_00000056428200234170165670000003313558106269863308_);" d="M314.912,167.444
		c0,0.324-0.262,0.586-0.586,0.586h-17.424c-0.324,0-0.586-0.262-0.586-0.586v-10.807c0-0.322,0.262-0.584,0.586-0.584h17.424
		c0.324,0,0.586,0.261,0.586,0.584V167.444z"/>
	
		<linearGradient id="SVGID_00000036937007414887129630000000426224974036100774_" gradientUnits="userSpaceOnUse" x1="98.0933" y1="197.61" x2="118.6665" y2="197.61">
		<stop  offset="0" style="stop-color:#333334"/>
		<stop  offset="0.5161" style="stop-color:#454547"/>
		<stop  offset="1" style="stop-color:#363537"/>
	</linearGradient>
	<path style="fill:url(#SVGID_00000036937007414887129630000000426224974036100774_);" d="M118.667,203.016
		c0,0.319-0.288,0.581-0.646,0.581H98.742c-0.361,0-0.649-0.261-0.649-0.581v-10.807c0-0.325,0.288-0.586,0.649-0.586h19.278
		c0.358,0,0.646,0.261,0.646,0.586V203.016z"/>
	
		<linearGradient id="SVGID_00000020361557702266307680000015215546334404589187_" gradientUnits="userSpaceOnUse" x1="73.4302" y1="197.61" x2="93.0718" y2="197.61">
		<stop  offset="0" style="stop-color:#333334"/>
		<stop  offset="0.5161" style="stop-color:#454547"/>
		<stop  offset="1" style="stop-color:#363537"/>
	</linearGradient>
	<path style="fill:url(#SVGID_00000020361557702266307680000015215546334404589187_);" d="M93.072,203.016
		c0,0.319-0.178,0.581-0.397,0.581H73.828c-0.222,0-0.397-0.261-0.397-0.581v-10.807c0-0.325,0.175-0.586,0.397-0.586h18.847
		c0.22,0,0.397,0.261,0.397,0.586V203.016z"/>
	
		<linearGradient id="SVGID_00000124879116043830609380000004940936364038080163_" gradientUnits="userSpaceOnUse" x1="123.5025" y1="197.61" x2="146.6411" y2="197.61">
		<stop  offset="0" style="stop-color:#333334"/>
		<stop  offset="0.5161" style="stop-color:#454547"/>
		<stop  offset="1" style="stop-color:#363537"/>
	</linearGradient>
	<path style="fill:url(#SVGID_00000124879116043830609380000004940936364038080163_);" d="M146.641,203.016
		c0,0.319-0.327,0.581-0.73,0.581h-21.679c-0.402,0-0.729-0.261-0.729-0.581v-10.807c0-0.325,0.327-0.586,0.729-0.586h21.679
		c0.403,0,0.73,0.261,0.73,0.586V203.016z"/>
	
		<linearGradient id="SVGID_00000011033272769323979080000014011777874408677508_" gradientUnits="userSpaceOnUse" x1="152.5493" y1="197.61" x2="244.065" y2="197.61">
		<stop  offset="0" style="stop-color:#333334"/>
		<stop  offset="0.5161" style="stop-color:#454547"/>
		<stop  offset="1" style="stop-color:#363537"/>
	</linearGradient>
	<path style="fill:url(#SVGID_00000011033272769323979080000014011777874408677508_);" d="M244.065,203.016
		c0,0.319-1.292,0.581-2.882,0.581h-85.744c-1.601,0-2.89-0.261-2.89-0.581v-10.807c0-0.325,1.289-0.586,2.89-0.586h85.744
		c1.59,0,2.882,0.261,2.882,0.586V203.016z"/>
	
		<linearGradient id="SVGID_00000105391433111749133410000009366111701092006298_" gradientUnits="userSpaceOnUse" x1="249.0816" y1="197.61" x2="267.6822" y2="197.61">
		<stop  offset="0" style="stop-color:#333334"/>
		<stop  offset="0.5161" style="stop-color:#454547"/>
		<stop  offset="1" style="stop-color:#363537"/>
	</linearGradient>
	<path style="fill:url(#SVGID_00000105391433111749133410000009366111701092006298_);" d="M267.682,203.016
		c0,0.319-0.264,0.581-0.586,0.581h-17.424c-0.324,0-0.591-0.261-0.591-0.581v-10.807c0-0.325,0.267-0.586,0.591-0.586h17.424
		c0.322,0,0.586,0.261,0.586,0.586V203.016z"/>
	
		<linearGradient id="SVGID_00000091735078362250727780000011487468286434920123_" gradientUnits="userSpaceOnUse" x1="272.6988" y1="197.61" x2="291.2969" y2="197.61">
		<stop  offset="0" style="stop-color:#333334"/>
		<stop  offset="0.5161" style="stop-color:#454547"/>
		<stop  offset="1" style="stop-color:#363537"/>
	</linearGradient>
	<path style="fill:url(#SVGID_00000091735078362250727780000011487468286434920123_);" d="M291.297,203.016
		c0,0.319-0.262,0.581-0.584,0.581h-17.426c-0.325,0-0.588-0.261-0.588-0.581v-10.807c0-0.325,0.264-0.586,0.588-0.586h17.426
		c0.322,0,0.584,0.261,0.584,0.586V203.016z"/>
	
		<linearGradient id="SVGID_00000014631942291051447510000005900174447906455180_" gradientUnits="userSpaceOnUse" x1="296.316" y1="197.61" x2="314.9117" y2="197.61">
		<stop  offset="0" style="stop-color:#333334"/>
		<stop  offset="0.5161" style="stop-color:#454547"/>
		<stop  offset="1" style="stop-color:#363537"/>
	</linearGradient>
	<path style="fill:url(#SVGID_00000014631942291051447510000005900174447906455180_);" d="M314.912,203.016
		c0,0.319-0.262,0.581-0.586,0.581h-17.424c-0.324,0-0.586-0.261-0.586-0.581v-10.807c0-0.325,0.262-0.586,0.586-0.586h17.424
		c0.324,0,0.586,0.261,0.586,0.586V203.016z"/>
	
		<linearGradient id="SVGID_00000161602838953063612810000010935753236041370035_" gradientUnits="userSpaceOnUse" x1="319.9331" y1="197.61" x2="335.8658" y2="197.61">
		<stop  offset="0" style="stop-color:#333334"/>
		<stop  offset="0.5161" style="stop-color:#454547"/>
		<stop  offset="1" style="stop-color:#363537"/>
	</linearGradient>
	<path style="fill:url(#SVGID_00000161602838953063612810000010935753236041370035_);" d="M335.866,203.016
		c0,0.319-0.225,0.581-0.502,0.581h-14.929c-0.277,0-0.502-0.261-0.502-0.581v-10.807c0-0.325,0.225-0.586,0.502-0.586h14.929
		c0.277,0,0.502,0.261,0.502,0.586V203.016z"/>
	
		<linearGradient id="SVGID_00000075846429488826007510000018312609352825570733_" gradientUnits="userSpaceOnUse" x1="338.9917" y1="197.61" x2="351.7993" y2="197.61">
		<stop  offset="0" style="stop-color:#333334"/>
		<stop  offset="0.5161" style="stop-color:#454547"/>
		<stop  offset="1" style="stop-color:#363537"/>
	</linearGradient>
	<path style="fill:url(#SVGID_00000075846429488826007510000018312609352825570733_);" d="M351.799,203.016
		c0,0.319-0.181,0.581-0.403,0.581h-11.999c-0.225,0-0.405-0.261-0.405-0.581v-10.807c0-0.325,0.18-0.586,0.405-0.586h11.999
		c0.222,0,0.403,0.261,0.403,0.586V203.016z"/>
	
		<linearGradient id="SVGID_00000163054338153761687740000004220319153567656616_" gradientUnits="userSpaceOnUse" x1="319.9331" y1="154.1261" x2="351.7993" y2="154.1261">
		<stop  offset="0" style="stop-color:#333334"/>
		<stop  offset="0.5161" style="stop-color:#454547"/>
		<stop  offset="1" style="stop-color:#363537"/>
	</linearGradient>
	<path style="fill:url(#SVGID_00000163054338153761687740000004220319153567656616_);" d="M351.213,140.223h-17.427
		c-0.321,0-0.586,0.261-0.586,0.586v15.246h-12.682c-0.324,0-0.586,0.261-0.586,0.584v10.807c0,0.324,0.262,0.586,0.586,0.586
		h30.694c0.324,0,0.586-0.262,0.586-0.586v-7.54v-3.267v-15.829C351.799,140.484,351.538,140.223,351.213,140.223z"/>
	
		<linearGradient id="SVGID_00000070101087473925641220000014283037083794042245_" gradientUnits="userSpaceOnUse" x1="97.0425" y1="128.0661" x2="115.6377" y2="128.0661">
		<stop  offset="0" style="stop-color:#333334"/>
		<stop  offset="0.5161" style="stop-color:#454547"/>
		<stop  offset="1" style="stop-color:#363537"/>
	</linearGradient>
	<path style="fill:url(#SVGID_00000070101087473925641220000014283037083794042245_);" d="M115.638,131.395
		c0,0.325-0.261,0.586-0.584,0.586H97.629c-0.325,0-0.586-0.261-0.586-0.586v-6.662c0-0.321,0.261-0.583,0.586-0.583h17.426
		c0.322,0,0.584,0.262,0.584,0.583V131.395z"/>
	
		<linearGradient id="SVGID_00000173122063768206982670000009238004214465939888_" gradientUnits="userSpaceOnUse" x1="120.6597" y1="128.0661" x2="139.2549" y2="128.0661">
		<stop  offset="0" style="stop-color:#333334"/>
		<stop  offset="0.5161" style="stop-color:#454547"/>
		<stop  offset="1" style="stop-color:#363537"/>
	</linearGradient>
	<path style="fill:url(#SVGID_00000173122063768206982670000009238004214465939888_);" d="M139.255,131.395
		c0,0.325-0.261,0.586-0.585,0.586h-17.422c-0.327,0-0.588-0.261-0.588-0.586v-6.662c0-0.321,0.261-0.583,0.588-0.583h17.422
		c0.324,0,0.585,0.262,0.585,0.583V131.395z"/>
	
		<linearGradient id="SVGID_00000113347535560086901150000002539824880694598027_" gradientUnits="userSpaceOnUse" x1="144.2769" y1="128.0661" x2="162.8721" y2="128.0661">
		<stop  offset="0" style="stop-color:#333334"/>
		<stop  offset="0.5161" style="stop-color:#454547"/>
		<stop  offset="1" style="stop-color:#363537"/>
	</linearGradient>
	<path style="fill:url(#SVGID_00000113347535560086901150000002539824880694598027_);" d="M162.872,131.395
		c0,0.325-0.261,0.586-0.585,0.586h-17.424c-0.324,0-0.585-0.261-0.585-0.586v-6.662c0-0.321,0.261-0.583,0.585-0.583h17.424
		c0.324,0,0.585,0.262,0.585,0.583V131.395z"/>
	
		<linearGradient id="SVGID_00000169557551676878176610000017175713444137600167_" gradientUnits="userSpaceOnUse" x1="167.8882" y1="128.0661" x2="186.4893" y2="128.0661">
		<stop  offset="0" style="stop-color:#333334"/>
		<stop  offset="0.5161" style="stop-color:#454547"/>
		<stop  offset="1" style="stop-color:#363537"/>
	</linearGradient>
	<path style="fill:url(#SVGID_00000169557551676878176610000017175713444137600167_);" d="M186.489,131.395
		c0,0.325-0.264,0.586-0.588,0.586h-17.424c-0.324,0-0.589-0.261-0.589-0.586v-6.662c0-0.321,0.265-0.583,0.589-0.583h17.424
		c0.324,0,0.588,0.262,0.588,0.583V131.395z"/>
	
		<linearGradient id="SVGID_00000126323870434421435660000016203966271390354828_" gradientUnits="userSpaceOnUse" x1="191.5054" y1="128.0661" x2="210.1011" y2="128.0661">
		<stop  offset="0" style="stop-color:#333334"/>
		<stop  offset="0.5161" style="stop-color:#454547"/>
		<stop  offset="1" style="stop-color:#363537"/>
	</linearGradient>
	<path style="fill:url(#SVGID_00000126323870434421435660000016203966271390354828_);" d="M210.101,131.395
		c0,0.325-0.261,0.586-0.586,0.586h-17.424c-0.324,0-0.586-0.261-0.586-0.586v-6.662c0-0.321,0.262-0.583,0.586-0.583h17.424
		c0.325,0,0.586,0.262,0.586,0.583V131.395z"/>
	
		<linearGradient id="SVGID_00000173131948363683965040000012804555282669163428_" gradientUnits="userSpaceOnUse" x1="215.1226" y1="128.0661" x2="233.7183" y2="128.0661">
		<stop  offset="0" style="stop-color:#333334"/>
		<stop  offset="0.5161" style="stop-color:#454547"/>
		<stop  offset="1" style="stop-color:#363537"/>
	</linearGradient>
	<path style="fill:url(#SVGID_00000173131948363683965040000012804555282669163428_);" d="M233.718,131.395
		c0,0.325-0.261,0.586-0.586,0.586h-17.424c-0.324,0-0.586-0.261-0.586-0.586v-6.662c0-0.321,0.262-0.583,0.586-0.583h17.424
		c0.325,0,0.586,0.262,0.586,0.583V131.395z"/>
	
		<linearGradient id="SVGID_00000179645349381835380380000005793878982817538949_" gradientUnits="userSpaceOnUse" x1="238.7349" y1="128.0661" x2="257.3355" y2="128.0661">
		<stop  offset="0" style="stop-color:#333334"/>
		<stop  offset="0.5161" style="stop-color:#454547"/>
		<stop  offset="1" style="stop-color:#363537"/>
	</linearGradient>
	<path style="fill:url(#SVGID_00000179645349381835380380000005793878982817538949_);" d="M257.336,131.395
		c0,0.325-0.267,0.586-0.586,0.586h-17.426c-0.324,0-0.588-0.261-0.588-0.586v-6.662c0-0.321,0.264-0.583,0.588-0.583h17.426
		c0.319,0,0.586,0.262,0.586,0.583V131.395z"/>
	
		<linearGradient id="SVGID_00000126292021180368012190000016808152074017724574_" gradientUnits="userSpaceOnUse" x1="262.3521" y1="128.0661" x2="280.9478" y2="128.0661">
		<stop  offset="0" style="stop-color:#333334"/>
		<stop  offset="0.5161" style="stop-color:#454547"/>
		<stop  offset="1" style="stop-color:#363537"/>
	</linearGradient>
	<path style="fill:url(#SVGID_00000126292021180368012190000016808152074017724574_);" d="M280.948,131.395
		c0,0.325-0.262,0.586-0.586,0.586H262.94c-0.322,0-0.588-0.261-0.588-0.586v-6.662c0-0.321,0.267-0.583,0.588-0.583h17.421
		c0.324,0,0.586,0.262,0.586,0.583V131.395z"/>
	
		<linearGradient id="SVGID_00000119109655177548881290000000211261969508443581_" gradientUnits="userSpaceOnUse" x1="285.9693" y1="128.0661" x2="304.565" y2="128.0661">
		<stop  offset="0" style="stop-color:#333334"/>
		<stop  offset="0.5161" style="stop-color:#454547"/>
		<stop  offset="1" style="stop-color:#363537"/>
	</linearGradient>
	<path style="fill:url(#SVGID_00000119109655177548881290000000211261969508443581_);" d="M304.565,131.395
		c0,0.325-0.262,0.586-0.586,0.586h-17.424c-0.324,0-0.586-0.261-0.586-0.586v-6.662c0-0.321,0.262-0.583,0.586-0.583h17.424
		c0.324,0,0.586,0.262,0.586,0.583V131.395z"/>
	
		<linearGradient id="SVGID_00000018921438817802469430000000922519201282911670_" gradientUnits="userSpaceOnUse" x1="309.5835" y1="128.0661" x2="328.1792" y2="128.0661">
		<stop  offset="0" style="stop-color:#333334"/>
		<stop  offset="0.5161" style="stop-color:#454547"/>
		<stop  offset="1" style="stop-color:#363537"/>
	</linearGradient>
	<path style="fill:url(#SVGID_00000018921438817802469430000000922519201282911670_);" d="M328.179,131.395
		c0,0.325-0.264,0.586-0.586,0.586H310.17c-0.321,0-0.586-0.261-0.586-0.586v-6.662c0-0.321,0.265-0.583,0.586-0.583h17.424
		c0.322,0,0.586,0.262,0.586,0.583V131.395z"/>
	
		<linearGradient id="SVGID_00000044891339250386643140000011965615542765020601_" gradientUnits="userSpaceOnUse" x1="332.7906" y1="128.0661" x2="351.3863" y2="128.0661">
		<stop  offset="0" style="stop-color:#333334"/>
		<stop  offset="0.5161" style="stop-color:#454547"/>
		<stop  offset="1" style="stop-color:#363537"/>
	</linearGradient>
	<path style="fill:url(#SVGID_00000044891339250386643140000011965615542765020601_);" d="M351.386,131.395
		c0,0.325-0.265,0.586-0.589,0.586h-17.424c-0.322,0-0.583-0.261-0.583-0.586v-6.662c0-0.321,0.261-0.583,0.583-0.583h17.424
		c0.324,0,0.589,0.262,0.589,0.583V131.395z"/>
	<g>
		
			<linearGradient id="SVGID_00000168085774180628934270000017136811611636665745_" gradientUnits="userSpaceOnUse" x1="192.1525" y1="74.0155" x2="316.5869" y2="74.0155">
			<stop  offset="0" style="stop-color:#333334"/>
			<stop  offset="0.5376" style="stop-color:#3C3A3C"/>
			<stop  offset="1" style="stop-color:#363537"/>
		</linearGradient>
		<path style="fill:url(#SVGID_00000168085774180628934270000017136811611636665745_);" d="M314.38,112.348
			c-0.07,0-0.141-0.002-0.212-0.013c-1.14-0.115-1.967-1.135-1.852-2.27c0.413-4.033,0.648-17.709-13.668-24.417
			c-4.269-1.998-9.437,1.03-15.981,4.867c-7.707,4.522-17.309,10.15-29.528,9.483c-10.012-0.541-20.23-4.269-27.551-9.692
			c-0.147-0.019-0.291-0.042-0.434-0.065c-10.88-1.742-22.958-5.014-30.067-16.054c-3.002-4.668-3.746-10.524-2.03-16.069
			c1.608-5.204,5.121-9.389,9.39-11.191c9.755-4.119,20.97-1.415,30.862,0.968c2.968,0.714,5.772,1.392,8.456,1.881
			c19.414,3.515,33.127,3.421,43.157-0.296c7.833-2.9,10.336-8.058,11.994-11.468c0.214-0.439,0.408-0.842,0.602-1.211
			c0.523-1.012,1.773-1.41,2.793-0.881c1.015,0.523,1.412,1.773,0.884,2.791c-0.172,0.337-0.355,0.708-0.549,1.112
			c-1.831,3.763-4.891,10.063-14.285,13.545c-10.755,3.986-25.161,4.14-45.333,0.484c-2.801-0.507-5.663-1.198-8.688-1.925
			c-9.722-2.343-19.78-4.765-28.281-1.182c-3.107,1.313-5.806,4.611-7.04,8.6c-1.35,4.372-0.785,8.965,1.559,12.601
			c4.273,6.644,10.635,10.613,21.29,13.062c-0.397-0.471-0.769-0.947-1.12-1.434c-3.758-5.163-4.948-10.89-3.444-16.561
			c1.943-7.333,7.789-10.598,16.035-8.96c4.886,0.973,11.717,5.869,10.504,15.369c-0.829,6.491-3.455,11.826-7.198,14.625
			c-0.847,0.633-1.736,1.141-2.673,1.523c6.17,3.536,13.831,5.885,21.395,6.295c10.958,0.589,19.602-4.459,27.208-8.921
			c7.294-4.279,13.592-7.972,19.835-5.045c16.786,7.87,16.517,23.873,16.03,28.592C316.329,111.552,315.432,112.348,314.38,112.348z
			 M227.109,86.277c1.912,0.071,3.57-0.441,5.053-1.551c2.848-2.134,4.878-6.447,5.568-11.835c0.958-7.477-4.875-10.312-7.2-10.778
			c-6.081-1.208-9.852,0.795-11.223,5.958c-1.188,4.488-0.251,8.882,2.791,13.064C223.427,82.963,225.129,84.692,227.109,86.277z"/>
	</g>
	
		<linearGradient id="SVGID_00000033361785253453258580000016111187656474358943_" gradientUnits="userSpaceOnUse" x1="309.5835" y1="112.1147" x2="318.8814" y2="112.1147">
		<stop  offset="0" style="stop-color:#000000"/>
		<stop  offset="0.5376" style="stop-color:#3C3A3C"/>
		<stop  offset="1" style="stop-color:#000000"/>
	</linearGradient>
	
		<rect x="309.584" y="108.981" style="fill:url(#SVGID_00000033361785253453258580000016111187656474358943_);" width="9.298" height="6.267"/>
</g>
<g>
	<g>
		<path d="M166.558,263.631l-3.548,10.737l3.886,13.044h-6.39l-2.505-10.194v10.194h-6.185v-23.781h6.185v9.239l2.754-9.239H166.558
			z"/>
		<path d="M167.96,263.631h10.313v4.759h-4.128v4.509h3.863v4.524h-3.863v5.229h4.539v4.759H167.96V263.631z"/>
		<path d="M193.637,263.631l-4.51,15.173v8.608h-5.729v-8.608l-4.348-15.173h5.681c0.888,4.642,1.388,7.766,1.502,9.372
			c0.343-2.538,0.916-5.662,1.722-9.372H193.637z"/>
		<path d="M194.693,263.631h6.17c1.948,0,3.425,0.151,4.429,0.455c1.004,0.303,1.814,0.917,2.431,1.842
			c0.617,0.925,0.926,2.415,0.926,4.47c0,1.39-0.218,2.358-0.653,2.906c-0.437,0.548-1.296,0.969-2.578,1.262
			c1.43,0.324,2.398,0.86,2.908,1.609c0.509,0.75,0.764,1.899,0.764,3.447v2.205c0,1.607-0.184,2.797-0.551,3.571
			c-0.367,0.774-0.952,1.303-1.755,1.587c-0.804,0.284-2.448,0.426-4.936,0.426h-7.154V263.631z M200.878,267.7v5.288
			c0.265-0.01,0.47-0.015,0.617-0.015c0.606,0,0.993-0.149,1.16-0.448c0.166-0.299,0.25-1.153,0.25-2.564
			c0-0.744-0.069-1.265-0.206-1.564c-0.137-0.299-0.315-0.487-0.536-0.566C201.942,267.753,201.515,267.709,200.878,267.7z
			 M200.878,276.689v6.654c0.871-0.029,1.427-0.167,1.667-0.411c0.24-0.245,0.36-0.847,0.36-1.807v-2.218
			c0-1.019-0.108-1.635-0.323-1.851C202.366,276.841,201.798,276.719,200.878,276.689z"/>
		<path d="M225.438,277.556c0,2.39-0.056,4.082-0.169,5.075c-0.112,0.994-0.465,1.902-1.058,2.725
			c-0.592,0.823-1.393,1.455-2.401,1.895c-1.009,0.441-2.184,0.661-3.525,0.661c-1.272,0-2.416-0.208-3.43-0.624
			c-1.014-0.416-1.829-1.04-2.445-1.873c-0.617-0.832-0.984-1.738-1.102-2.718c-0.117-0.979-0.176-2.693-0.176-5.141v-4.069
			c0-2.389,0.057-4.081,0.169-5.075c0.112-0.994,0.465-1.902,1.058-2.725c0.593-0.822,1.393-1.454,2.401-1.895
			c1.009-0.441,2.184-0.661,3.525-0.661c1.273,0,2.417,0.208,3.43,0.624c1.014,0.417,1.829,1.041,2.446,1.873
			c0.617,0.833,0.984,1.738,1.102,2.717c0.117,0.979,0.176,2.693,0.176,5.141V277.556z M219.254,269.741
			c0-1.107-0.062-1.814-0.184-2.123c-0.123-0.309-0.375-0.462-0.757-0.462c-0.323,0-0.57,0.125-0.741,0.375
			c-0.172,0.25-0.258,0.986-0.258,2.211v11.105c0,1.381,0.057,2.233,0.169,2.556c0.113,0.323,0.375,0.485,0.786,0.485
			c0.421,0,0.69-0.186,0.808-0.558c0.118-0.372,0.177-1.258,0.177-2.659V269.741z"/>
		<path d="M238.434,263.631l3.536,23.781h-6.319l-0.332-4.274h-2.212l-0.372,4.274h-6.393l3.154-23.781H238.434z M235.156,278.922
			c-0.313-2.693-0.627-6.023-0.942-9.988c-0.63,4.554-1.025,7.883-1.187,9.988H235.156z"/>
		<path d="M243.02,263.631h4.378c2.918,0,4.893,0.112,5.927,0.338c1.033,0.225,1.875,0.8,2.526,1.726
			c0.651,0.926,0.977,2.402,0.977,4.429c0,1.851-0.23,3.095-0.69,3.731c-0.461,0.637-1.366,1.019-2.718,1.146
			c1.224,0.304,2.047,0.71,2.468,1.219c0.421,0.509,0.683,0.977,0.786,1.403c0.102,0.426,0.153,1.599,0.153,3.518v6.272h-5.743
			v-7.903c0-1.273-0.101-2.061-0.301-2.365c-0.201-0.303-0.728-0.456-1.579-0.456v10.723h-6.185V263.631z M249.204,267.7v5.288
			c0.695,0,1.183-0.096,1.462-0.287c0.278-0.191,0.418-0.81,0.418-1.858v-1.307c0-0.754-0.135-1.249-0.403-1.483
			C250.411,267.817,249.919,267.7,249.204,267.7z"/>
		<path d="M259.222,263.631h4.628c2.986,0,5.006,0.137,6.059,0.411c1.053,0.275,1.854,0.725,2.401,1.352
			c0.549,0.626,0.892,1.324,1.028,2.093c0.138,0.769,0.206,2.28,0.206,4.532v8.329c0,2.135-0.101,3.562-0.301,4.282
			c-0.201,0.72-0.551,1.283-1.051,1.689c-0.499,0.406-1.116,0.69-1.851,0.852c-0.734,0.162-1.841,0.242-3.319,0.242h-7.801V263.631z
			 M265.406,267.7v15.643c0.891,0,1.439-0.179,1.645-0.536c0.205-0.357,0.308-1.33,0.308-2.915v-9.24
			c0-1.077-0.034-1.767-0.102-2.071c-0.068-0.304-0.226-0.526-0.47-0.668C266.542,267.771,266.082,267.7,265.406,267.7z"/>
	</g>
	<g>
		<path d="M151.924,293.212h1.217l3.708,8.643l3.768-8.643h1.217l-4.867,11.187h-0.243L151.924,293.212z"/>
		<path d="M163.72,293.212h6.411v1.095h-5.294v3.506h5.248v1.095h-5.248v4.396h5.248v1.095h-6.365V293.212z"/>
		<path d="M182.482,295.289l-0.882,0.677c-0.486-0.634-1.071-1.114-1.753-1.441c-0.682-0.327-1.431-0.49-2.247-0.49
			c-0.893,0-1.719,0.214-2.479,0.643c-0.76,0.429-1.35,1.004-1.768,1.727c-0.419,0.722-0.627,1.535-0.627,2.437
			c0,1.364,0.468,2.502,1.403,3.415c0.935,0.913,2.115,1.369,3.54,1.369c1.567,0,2.878-0.613,3.932-1.84l0.882,0.669
			c-0.558,0.71-1.253,1.258-2.087,1.646c-0.834,0.388-1.766,0.582-2.795,0.582c-1.957,0-3.501-0.651-4.632-1.955
			c-0.948-1.1-1.422-2.428-1.422-3.985c0-1.638,0.574-3.016,1.723-4.133c1.148-1.118,2.587-1.677,4.316-1.677
			c1.044,0,1.987,0.207,2.829,0.62C181.254,293.964,181.944,294.543,182.482,295.289z"/>
		<path d="M183.615,294.308v-1.095h6.13v1.095h-2.495v10.092h-1.141v-10.092H183.615z"/>
		<path d="M196.684,292.931c1.695,0,3.113,0.565,4.254,1.696c1.142,1.13,1.712,2.523,1.712,4.175c0,1.638-0.569,3.027-1.708,4.168
			c-1.139,1.141-2.528,1.711-4.167,1.711c-1.659,0-3.059-0.568-4.201-1.704c-1.142-1.135-1.712-2.509-1.712-4.122
			c0-1.075,0.26-2.071,0.78-2.989c0.52-0.918,1.229-1.636,2.127-2.156C194.667,293.191,195.639,292.931,196.684,292.931z
			 M196.734,294.018c-0.828,0-1.612,0.215-2.354,0.647c-0.741,0.431-1.32,1.012-1.737,1.743c-0.417,0.731-0.624,1.545-0.624,2.443
			c0,1.33,0.461,2.452,1.382,3.368c0.922,0.916,2.033,1.374,3.333,1.374c0.868,0,1.672-0.21,2.411-0.632
			c0.739-0.421,1.315-0.997,1.729-1.728c0.414-0.73,0.621-1.542,0.621-2.435c0-0.888-0.207-1.691-0.621-2.409
			c-0.414-0.718-0.997-1.293-1.748-1.724C198.374,294.234,197.577,294.018,196.734,294.018z"/>
		<path d="M204.955,293.212h2.228c1.242,0,2.084,0.051,2.525,0.152c0.664,0.152,1.204,0.478,1.62,0.979
			c0.415,0.5,0.624,1.115,0.624,1.846c0,0.609-0.144,1.145-0.43,1.607c-0.287,0.462-0.696,0.811-1.229,1.047
			c-0.532,0.236-1.268,0.357-2.205,0.362l4.023,5.194h-1.383l-4.023-5.194h-0.632v5.194h-1.118V293.212z M206.073,294.308v3.802
			l1.927,0.016c0.747,0,1.299-0.071,1.657-0.213c0.358-0.142,0.637-0.369,0.838-0.68c0.201-0.312,0.301-0.661,0.301-1.046
			c0-0.376-0.101-0.716-0.305-1.023c-0.203-0.307-0.47-0.526-0.8-0.658c-0.33-0.132-0.878-0.198-1.645-0.198H206.073z"/>
		<path d="M218.659,304.399v-11.187h2.319c1.673,0,2.888,0.134,3.643,0.403c1.085,0.38,1.933,1.039,2.544,1.978
			c0.611,0.938,0.916,2.056,0.916,3.353c0,1.121-0.242,2.107-0.727,2.958c-0.484,0.852-1.113,1.48-1.886,1.886
			c-0.773,0.406-1.857,0.608-3.252,0.608H218.659z M219.732,303.342h1.293c1.546,0,2.619-0.096,3.217-0.288
			c0.842-0.274,1.504-0.766,1.985-1.478c0.482-0.712,0.723-1.582,0.723-2.61c0-1.079-0.261-2.001-0.783-2.766
			c-0.523-0.765-1.25-1.29-2.183-1.573c-0.7-0.212-1.854-0.319-3.46-0.319h-0.791V303.342z"/>
		<path d="M230.257,293.212h6.411v1.095h-5.294v3.506h5.248v1.095h-5.248v4.396h5.248v1.095h-6.365V293.212z"/>
		<path d="M237.444,302.315l0.95-0.57c0.669,1.232,1.442,1.848,2.32,1.848c0.375,0,0.728-0.087,1.057-0.262
			c0.33-0.175,0.581-0.41,0.753-0.704c0.172-0.294,0.258-0.606,0.258-0.936c0-0.375-0.126-0.743-0.38-1.103
			c-0.35-0.497-0.989-1.095-1.917-1.795c-0.933-0.705-1.514-1.214-1.742-1.529c-0.396-0.527-0.593-1.098-0.593-1.711
			c0-0.487,0.117-0.93,0.35-1.331c0.233-0.4,0.561-0.716,0.985-0.947c0.423-0.23,0.883-0.346,1.38-0.346
			c0.527,0,1.021,0.131,1.48,0.392c0.458,0.261,0.944,0.741,1.457,1.441l-0.913,0.692c-0.421-0.558-0.779-0.925-1.076-1.103
			c-0.297-0.177-0.62-0.266-0.97-0.266c-0.452,0-0.82,0.137-1.107,0.411c-0.286,0.274-0.43,0.611-0.43,1.011
			c0,0.244,0.051,0.479,0.152,0.708c0.102,0.228,0.287,0.477,0.555,0.745c0.147,0.142,0.628,0.515,1.445,1.118
			c0.968,0.715,1.633,1.351,1.993,1.909c0.36,0.558,0.54,1.118,0.54,1.681c0,0.811-0.308,1.516-0.924,2.114
			c-0.616,0.599-1.365,0.897-2.247,0.897c-0.68,0-1.295-0.181-1.848-0.543C238.42,303.774,237.911,303.167,237.444,302.315z"/>
		<path d="M246.198,293.212h1.118v11.187h-1.118V293.212z"/>
		<path d="M260.67,295.091l-0.867,0.821c-0.624-0.613-1.307-1.079-2.05-1.396c-0.743-0.317-1.466-0.476-2.171-0.476
			c-0.877,0-1.712,0.216-2.506,0.647c-0.794,0.431-1.408,1.016-1.844,1.753c-0.436,0.738-0.654,1.518-0.654,2.339
			c0,0.842,0.225,1.642,0.677,2.399c0.451,0.758,1.075,1.353,1.871,1.787c0.796,0.434,1.668,0.65,2.616,0.65
			c1.151,0,2.124-0.325,2.92-0.974c0.796-0.649,1.268-1.491,1.415-2.525h-3.566v-1.08h4.821c-0.01,1.729-0.523,3.102-1.54,4.118
			c-1.017,1.017-2.376,1.525-4.08,1.525c-2.068,0-3.706-0.705-4.913-2.114c-0.928-1.085-1.392-2.339-1.392-3.764
			c0-1.06,0.266-2.046,0.799-2.958c0.532-0.913,1.262-1.626,2.19-2.141c0.928-0.514,1.978-0.772,3.149-0.772
			c0.948,0,1.84,0.171,2.677,0.514C259.058,293.787,259.874,294.335,260.67,295.091z"/>
		<path d="M263.469,304.399v-11.187h0.243l7.445,8.575v-8.575h1.103v11.187h-0.251l-7.385-8.471v8.471H263.469z"/>
	</g>
</g>
</svg>
